<svg width="51" height="48" xmlns="http://www.w3.org/2000/svg" xmlns:xlink="http://www.w3.org/1999/xlink" overflow="hidden"><defs><clipPath id="clip0"><rect x="407" y="334" width="51" height="48"/></clipPath><clipPath id="clip1"><rect x="408" y="335" width="50" height="46"/></clipPath><clipPath id="clip2"><rect x="408" y="335" width="50" height="46"/></clipPath><clipPath id="clip3"><rect x="408" y="335" width="50" height="50"/></clipPath></defs><g clip-path="url(#clip0)" transform="translate(-407 -334)"><g clip-path="url(#clip1)"><g clip-path="url(#clip2)"><g clip-path="url(#clip3)"><path d="M24.9569 2.99482C12.8278 2.99482 2.99482 12.8278 2.99482 24.9569 2.99482 35.9678 11.1058 45.0591 21.6745 46.6474L21.6745 30.7778 16.2409 30.7778 16.2409 25.0048 21.6745 25.0048 21.6745 21.1634C21.6745 14.8034 24.7732 12.0112 30.0591 12.0112 32.5907 12.0112 33.9294 12.1989 34.5633 12.2848L34.5633 17.3241 30.9575 17.3241C28.7134 17.3241 27.9297 19.4514 27.9297 21.8492L27.9297 25.0048 34.5064 25.0048 33.6139 30.7778 27.9297 30.7778 27.9297 46.6943C38.6492 45.2398 46.9189 36.0747 46.9189 24.9569 46.9189 12.8278 37.0859 2.99482 24.9569 2.99482Z" transform="matrix(1.00173 0 0 1 408 335)"/></g></g></g></g></svg>