<?xml version="1.0" encoding="UTF-8"?>
<svg xmlns="http://www.w3.org/2000/svg" xmlns:xlink="http://www.w3.org/1999/xlink" width="30px" height="27px" viewBox="0 0 30 27" version="1.1">
<defs>
<clipPath id="clip1">
  <path d="M 2 4 L 26 4 L 26 26.691406 L 2 26.691406 Z M 2 4 "/>
</clipPath>
</defs>
<g id="surface1">
<path style=" stroke:none;fill-rule:nonzero;fill:rgb(0%,0%,0%);fill-opacity:1;" d="M 12.304688 9.226562 C 12.550781 8.980469 12.703125 8.644531 12.703125 8.277344 C 12.703125 7.910156 12.550781 7.574219 12.304688 7.332031 L 8.082031 3.148438 C 7.835938 2.902344 7.5 2.75 7.164062 2.75 C 6.828125 2.75 6.460938 2.902344 6.214844 3.148438 L 5.753906 3.605469 L 11.847656 9.683594 Z M 12.304688 9.226562 "/>
<g clip-path="url(#clip1)" clip-rule="nonzero">
<path style=" stroke:none;fill-rule:nonzero;fill:rgb(0%,0%,0%);fill-opacity:1;" d="M 18.460938 20.003906 C 18.335938 20.128906 18.152344 20.1875 18 20.1875 C 17.847656 20.1875 17.664062 20.128906 17.539062 20.003906 L 9.949219 12.460938 C 9.828125 12.339844 9.765625 12.15625 9.765625 12.003906 C 9.765625 11.851562 9.828125 11.667969 9.949219 11.546875 L 10.898438 10.628906 L 4.804688 4.550781 C 4.40625 4.949219 4.039062 5.316406 3.796875 5.558594 C 3.183594 6.140625 2.816406 6.902344 2.785156 7.726562 C 2.695312 9.101562 3.03125 10.414062 3.488281 11.699219 C 3.980469 12.828125 4.621094 13.898438 5.328125 14.90625 C 7.835938 18.660156 10.988281 21.929688 14.664062 24.523438 C 15.277344 24.984375 15.917969 25.378906 16.589844 25.746094 C 18.121094 26.511719 19.746094 27.058594 21.488281 27.183594 C 22.652344 27.273438 23.816406 26.816406 24.613281 25.960938 L 25.4375 25.136719 L 19.378906 19.058594 Z M 18.460938 20.003906 "/>
</g>
<path style=" stroke:none;fill-rule:nonzero;fill:rgb(0%,0%,0%);fill-opacity:1;" d="M 26.847656 21.867188 L 22.621094 17.652344 C 22.378906 17.410156 22.039062 17.257812 21.671875 17.257812 C 21.304688 17.257812 20.96875 17.410156 20.722656 17.652344 L 20.265625 18.140625 L 26.355469 24.21875 L 26.816406 23.761719 C 27.0625 23.515625 27.214844 23.179688 27.214844 22.816406 C 27.214844 22.449219 27.089844 22.113281 26.847656 21.867188 Z M 26.847656 21.867188 "/>
</g>
</svg>
