<?xml version="1.0" encoding="UTF-8"?>
<svg xmlns="http://www.w3.org/2000/svg" xmlns:xlink="http://www.w3.org/1999/xlink" width="30px" height="24px" viewBox="0 0 29 24" version="1.1">
<defs>
<clipPath id="clip1">
  <path d="M 2 6 L 27 6 L 27 23.691406 L 2 23.691406 Z M 2 6 "/>
</clipPath>
</defs>
<g id="surface1">
<g clip-path="url(#clip1)" clip-rule="nonzero">
<path style=" stroke:none;fill-rule:nonzero;fill:rgb(0%,0%,0%);fill-opacity:1;" d="M 2.390625 6.171875 L 2.390625 23.445312 L 26.308594 23.445312 L 26.308594 6.171875 Z M 14.769531 16.9375 C 14.53125 17.183594 14.171875 17.183594 13.933594 16.9375 L 5.082031 8.019531 L 23.648438 8.019531 Z M 10.015625 14.714844 L 4.1875 20.761719 L 4.1875 8.824219 Z M 10.882812 15.578125 L 13.125 17.832031 C 13.484375 18.171875 13.933594 18.355469 14.378906 18.355469 C 14.828125 18.355469 15.277344 18.171875 15.636719 17.832031 L 17.878906 15.578125 L 23.679688 21.59375 L 5.050781 21.59375 Z M 18.6875 14.714844 L 24.515625 8.855469 L 24.515625 20.730469 Z M 18.6875 14.714844 "/>
</g>
</g>
</svg>
