<?xml version="1.0" encoding="UTF-8"?>
<svg xmlns="http://www.w3.org/2000/svg" xmlns:xlink="http://www.w3.org/1999/xlink" width="50px" height="33px" viewBox="0 0 49 33" version="1.1">
<g id="surface1">
<path style=" stroke:none;fill-rule:nonzero;fill:rgb(9.411765%,46.666667%,94.901961%);fill-opacity:1;" d="M 8.042969 20.070312 L 6.621094 20.070312 L 6.621094 16.496094 L 5.652344 16.496094 L 5.652344 15.328125 L 6.621094 15.328125 L 6.621094 14.5 C 6.621094 13.519531 7.050781 12.816406 8.464844 12.816406 C 8.765625 12.816406 9.234375 12.875 9.234375 12.875 L 9.234375 13.957031 L 8.742188 13.957031 C 8.238281 13.957031 8.042969 14.113281 8.042969 14.539062 L 8.042969 15.328125 L 9.214844 15.328125 L 9.113281 16.496094 L 8.042969 16.496094 Z M 11.300781 15.238281 C 11.28125 15.238281 11.257812 15.238281 11.238281 15.238281 C 9.921875 15.238281 9.316406 16.238281 9.316406 17.660156 C 9.316406 19.449219 10.097656 20.164062 11.246094 20.164062 C 11.90625 20.164062 12.335938 19.886719 12.597656 19.363281 L 12.597656 20.070312 L 13.949219 20.070312 L 13.949219 15.332031 L 12.597656 15.332031 L 12.597656 16.058594 C 12.382812 15.589844 11.941406 15.242188 11.300781 15.238281 Z M 11.644531 16.355469 C 12.195312 16.355469 12.527344 16.746094 12.527344 17.410156 L 12.53125 18.085938 C 12.53125 18.535156 12.257812 19.058594 11.644531 19.058594 C 10.703125 19.058594 10.726562 18.03125 10.726562 17.6875 C 10.726562 16.539062 11.230469 16.355469 11.644531 16.355469 Z M 14.496094 17.703125 C 14.496094 17.125 14.46875 15.238281 16.898438 15.238281 C 17.875 15.238281 18.28125 15.554688 18.28125 15.554688 L 17.953125 16.578125 C 17.953125 16.578125 17.546875 16.351562 17.019531 16.351562 C 16.339844 16.351562 15.90625 16.75 15.90625 17.449219 L 15.90625 17.953125 C 15.90625 18.625 16.324219 19.074219 17.019531 19.074219 C 17.503906 19.074219 17.949219 18.847656 17.949219 18.847656 L 18.273438 19.851562 C 18.273438 19.851562 17.902344 20.167969 16.90625 20.167969 C 14.589844 20.167969 14.496094 18.476562 14.496094 17.703125 Z M 26.203125 15.238281 C 27.519531 15.238281 28.132812 16.238281 28.132812 17.660156 C 28.132812 19.449219 27.351562 20.164062 26.203125 20.164062 C 25.546875 20.164062 25.058594 19.886719 24.796875 19.363281 L 24.796875 20.070312 L 23.464844 20.070312 L 23.464844 12.960938 L 24.878906 12.835938 L 24.878906 15.996094 C 25.085938 15.441406 25.757812 15.238281 26.203125 15.238281 Z M 25.804688 16.355469 C 25.253906 16.355469 24.878906 16.746094 24.878906 17.410156 L 24.878906 18.085938 C 24.878906 18.535156 25.136719 19.058594 25.804688 19.058594 C 26.746094 19.058594 26.722656 18.03125 26.722656 17.6875 C 26.722656 16.539062 26.222656 16.355469 25.804688 16.355469 Z M 20.738281 15.242188 C 19.246094 15.242188 18.457031 16.066406 18.457031 17.527344 L 18.457031 17.796875 C 18.457031 19.695312 19.566406 20.183594 20.886719 20.183594 C 22.167969 20.183594 22.75 19.820312 22.75 19.820312 L 22.484375 18.855469 C 22.484375 18.855469 21.800781 19.148438 21.054688 19.148438 C 20.28125 19.148438 19.949219 18.949219 19.863281 18.199219 L 22.863281 18.199219 L 22.863281 17.425781 C 22.863281 15.839844 21.976562 15.242188 20.738281 15.242188 Z M 20.777344 16.210938 C 21.292969 16.210938 21.628906 16.53125 21.609375 17.273438 L 19.867188 17.273438 C 19.898438 16.492188 20.257812 16.210938 20.777344 16.210938 Z M 30.957031 15.234375 C 29.421875 15.234375 28.613281 16.109375 28.613281 17.671875 C 28.613281 19.820312 30.007812 20.167969 30.957031 20.167969 C 32.351562 20.167969 33.28125 19.410156 33.28125 17.691406 C 33.28125 15.90625 32.238281 15.234375 30.957031 15.234375 Z M 30.9375 16.359375 C 31.613281 16.359375 31.878906 16.871094 31.878906 17.453125 L 31.878906 17.949219 C 31.878906 18.652344 31.503906 19.0625 30.933594 19.0625 C 30.402344 19.0625 30.027344 18.679688 30.027344 17.949219 L 30.027344 17.453125 C 30.027344 16.671875 30.472656 16.359375 30.9375 16.359375 Z M 36.101562 15.234375 C 34.566406 15.234375 33.761719 16.109375 33.761719 17.671875 C 33.761719 19.820312 35.152344 20.167969 36.105469 20.167969 C 37.496094 20.167969 38.425781 19.410156 38.425781 17.691406 C 38.425781 15.90625 37.382812 15.234375 36.101562 15.234375 Z M 36.082031 16.359375 C 36.757812 16.359375 37.023438 16.871094 37.023438 17.453125 L 37.023438 17.949219 C 37.023438 18.652344 36.648438 19.0625 36.078125 19.0625 C 35.546875 19.0625 35.171875 18.679688 35.171875 17.949219 L 35.171875 17.453125 C 35.171875 16.671875 35.617188 16.359375 36.082031 16.359375 Z M 38.960938 20.070312 L 38.960938 12.960938 L 40.378906 12.835938 L 40.378906 17.601562 L 41.789062 15.328125 L 43.289062 15.328125 L 41.820312 17.683594 L 43.347656 20.070312 L 41.84375 20.070312 L 40.378906 17.75 L 40.378906 20.070312 Z M 38.960938 20.070312 "/>
</g>
</svg>
