<?xml version="1.0" encoding="UTF-8"?>
<svg xmlns="http://www.w3.org/2000/svg" xmlns:xlink="http://www.w3.org/1999/xlink" width="30px" height="28px" viewBox="0 0 29 28" version="1.1">
<defs>
<clipPath id="clip1">
  <path d="M 2 2 L 28 2 L 28 27.417969 L 2 27.417969 Z M 2 2 "/>
</clipPath>
</defs>
<g id="surface1">
<g clip-path="url(#clip1)" clip-rule="nonzero">
<path style=" stroke:none;fill-rule:nonzero;fill:rgb(0%,0%,0%);fill-opacity:1;" d="M 14.785156 2.332031 C 7.875 2.332031 2.273438 8.066406 2.273438 15.140625 C 2.273438 21.566406 6.894531 26.867188 12.914062 27.792969 L 12.914062 18.535156 L 9.820312 18.535156 L 9.820312 15.167969 L 12.914062 15.167969 L 12.914062 12.929688 C 12.914062 9.21875 14.679688 7.589844 17.691406 7.589844 C 19.132812 7.589844 19.894531 7.699219 20.257812 7.75 L 20.257812 10.6875 L 18.203125 10.6875 C 16.925781 10.6875 16.476562 11.929688 16.476562 13.328125 L 16.476562 15.167969 L 20.222656 15.167969 L 19.714844 18.535156 L 16.476562 18.535156 L 16.476562 27.820312 C 22.582031 26.972656 27.292969 21.625 27.292969 15.140625 C 27.292969 8.066406 21.691406 2.332031 14.785156 2.332031 Z M 14.785156 2.332031 "/>
</g>
</g>
</svg>
