<?xml version="1.0" encoding="UTF-8"?>
<svg xmlns="http://www.w3.org/2000/svg" xmlns:xlink="http://www.w3.org/1999/xlink" width="30px" height="30px" viewBox="0 0 30 29" version="1.1">
<g id="surface1">
<path style=" stroke:none;fill-rule:nonzero;fill:rgb(0%,0%,0%);fill-opacity:1;" d="M 21.09375 13.148438 C 21.09375 16.453125 18.363281 19.128906 15 19.128906 C 11.636719 19.128906 8.910156 16.453125 8.910156 13.148438 C 8.910156 9.847656 11.636719 7.171875 15 7.171875 C 18.363281 7.171875 21.09375 9.847656 21.09375 13.148438 Z M 21.09375 13.148438 "/>
<path style=" stroke:none;fill-rule:nonzero;fill:rgb(0%,0%,0%);fill-opacity:1;" d="M 27.183594 32.582031 L 27.183594 26.605469 C 27.183594 25.707031 26.726562 24.808594 25.964844 24.210938 C 24.289062 22.867188 22.15625 21.96875 20.027344 21.371094 C 18.503906 20.921875 16.828125 20.625 15 20.625 C 13.324219 20.625 11.648438 20.921875 9.972656 21.371094 C 7.84375 21.96875 5.710938 23.015625 4.035156 24.210938 C 3.273438 24.808594 2.816406 25.707031 2.816406 26.605469 L 2.816406 32.582031 Z M 27.183594 32.582031 "/>
</g>
</svg>
